<?xml version="1.0" encoding="iso-8859-1"?>
<!-- Generator: Adobe Illustrator 19.0.0, SVG Export Plug-In . SVG Version: 6.00 Build 0)  -->
<svg version="1.1" id="Layer_1" xmlns="http://www.w3.org/2000/svg" xmlns:xlink="http://www.w3.org/1999/xlink" x="0px" y="0px"
	 viewBox="0 0 512 512" style="enable-background:new 0 0 512 512;" xml:space="preserve">
<circle style="fill:#F4E3C3;" cx="256" cy="256" r="256"/>
<path style="fill:#FED8B2;" d="M505.985,311.33l-0.667-0.667l1.038-1.038c0.36-1.691,0.702-3.387,1.029-5.091L385.038,183.439
	l-1.029,5.915l-48.075-48.075L216.352,302.545l-60.935,82.773l126.047,125.423C392.373,499.788,482.469,418.054,505.985,311.33z"/>
<path style="fill:#804000;" d="M364.242,288.856h-58.559c-16.124,0-29.241-13.117-29.241-29.241v-55.639
	c0-16.124,13.117-29.239,29.241-29.239h58.558c16.124,0,29.241,13.115,29.241,29.239v55.639
	C393.483,275.737,380.366,288.856,364.242,288.856z M305.683,195.422c-4.717,0-8.554,3.837-8.554,8.552v55.639
	c0,4.717,3.837,8.554,8.554,8.554h58.558c4.717,0,8.554-3.837,8.554-8.554v-55.639c0-4.715-3.837-8.552-8.554-8.552L305.683,195.422
	L305.683,195.422z"/>
<path style="fill:#B97850;" d="M293.112,398.222H186.054c-23.65,0-42.824-19.173-42.824-42.824V141.281h192.705v214.116
	C335.936,379.049,316.762,398.222,293.112,398.222z"/>
<path style="fill:#935635;" d="M238.763,141.281v256.941h54.35c23.65,0,42.824-19.173,42.824-42.824V141.281H238.763z"/>
<circle style="fill:#FFD15D;" cx="239.588" cy="256" r="56.889"/>
<path style="fill:#F9B54C;" d="M239.583,199.111c-0.276,0-0.546,0.017-0.821,0.021v113.736c0.274,0.003,0.545,0.021,0.821,0.021
	c31.418,0,56.889-25.471,56.889-56.889S271.001,199.111,239.583,199.111z"/>
<g>
</g>
<g>
</g>
<g>
</g>
<g>
</g>
<g>
</g>
<g>
</g>
<g>
</g>
<g>
</g>
<g>
</g>
<g>
</g>
<g>
</g>
<g>
</g>
<g>
</g>
<g>
</g>
<g>
</g>
</svg>
