<svg class="img-fluid" id="outputsvg" xmlns="http://www.w3.org/2000/svg"
     style="transform: none; transform-origin: 50% 50%; cursor: move; max-height: none;" width="1024" height="1024"
     viewBox="0 0 10240 10240">
    <g id="l5e1HHqgTmvAKCpoefE2zii" fill-opacity="0" style="transform: none;">
        <g>
            <path id="p1CED49WJB"
                  d="M0 5120 l0 -5120 5120 0 5120 0 0 5120 0 5120 -5120 0 -5120 0 0 -5120z m9759 2945 c24 -16 54 -48 65 -70 l21 -40 3 -2821 2 -2820 -27 -55 c-23 -45 -37 -59 -82 -82 l-55 -27 -4560 0 -4561 0 -51 24 c-53 25 -83 58 -102 115 -9 25 -12 747 -12 2840 l0 2806 24 51 c24 52 65 89 114 104 15 5 2086 8 4602 7 l4575 -2 44 -30z"></path>
            <path id="pWIYCTQyd"
                  d="M2970 7850 c-839 -4 -1100 -8 -1116 -17 -28 -16 -73 -70 -85 -101 -5 -13 -14 -54 -20 -91 -41 -267 -65 -437 -105 -751 -8 -69 -19 -154 -24 -190 -4 -36 -11 -90 -15 -120 -9 -77 -34 -476 -46 -720 -5 -113 -14 -292 -21 -399 -11 -203 -5 -788 13 -1076 4 -82 13 -242 19 -355 9 -196 15 -252 45 -490 7 -58 19 -148 25 -200 16 -129 50 -370 56 -395 2 -11 11 -60 19 -110 7 -49 21 -134 29 -188 21 -129 53 -196 113 -236 l47 -31 3247 2 3247 3 38 31 c76 61 90 112 138 499 167 1344 184 2673 50 3975 -36 357 -87 748 -105 817 -13 49 -66 115 -106 132 -32 12 -3534 20 -5443 11z m1889 -616 c536 -70 1060 -376 1397 -816 391 -510 535 -1154 394 -1757 -73 -310 -231 -632 -431 -877 -138 -169 -340 -348 -517 -457 -318 -197 -638 -301 -1019 -331 l-73 -6 0 354 0 354 68 6 c278 25 497 99 713 242 110 72 294 260 369 374 110 168 182 348 217 543 22 126 22 399 0 525 -54 298 -195 562 -411 769 -246 237 -520 357 -888 389 l-68 6 0 354 0 355 68 -6 c37 -4 118 -13 181 -21z m-24 -1088 c308 -79 578 -303 710 -589 133 -288 131 -584 -6 -867 -60 -125 -118 -207 -203 -293 -178 -178 -395 -285 -643 -317 -219 -28 -487 45 -697 190 -86 59 -224 199 -277 280 -129 195 -186 398 -176 621 22 497 392 905 906 1000 86 15 277 3 386 -25z"></path>
            <path id="pkzNzsoCn"
                  d="M604 7686 l-34 -34 0 -346 c0 -376 2 -390 55 -414 19 -9 136 -12 421 -12 l396 0 29 29 c16 16 29 35 29 43 0 7 18 151 40 321 49 375 49 380 11 418 l-29 29 -442 0 -442 0 -34 -34z"></path>
            <path id="pPhiOwmyT"
                  d="M8699 7681 c-38 -39 -38 -47 11 -420 22 -168 40 -310 40 -317 0 -7 12 -26 26 -43 l26 -31 406 0 c371 0 409 2 428 18 43 34 44 47 44 407 l0 347 -34 34 -34 34 -442 0 -442 0 -29 -29z"></path>
            <path id="p8xLJ0kwt"
                  d="M634 6630 c-12 -4 -31 -21 -43 -36 -21 -27 -22 -31 -19 -386 3 -357 3 -358 26 -380 23 -23 23 -23 392 -26 245 -2 377 1 390 8 29 15 37 64 50 290 6 113 16 258 21 323 6 65 8 133 5 152 -13 68 3 65 -419 64 -210 0 -392 -4 -403 -9z"></path>
            <path id="pOY5rEXBu"
                  d="M8816 6615 c-24 -25 -29 -76 -17 -202 5 -65 15 -210 21 -323 13 -226 21 -275 50 -290 13 -7 145 -10 391 -8 l371 3 24 28 24 28 0 356 0 355 -34 34 -34 34 -390 0 c-338 0 -393 -2 -406 -15z"></path>
            <path id="pt7wnZEEr"
                  d="M634 5546 c-65 -28 -64 -24 -64 -411 0 -384 -1 -379 60 -410 33 -17 238 -20 559 -8 l182 6 15 28 c22 43 21 755 -2 787 l-15 22 -352 0 c-274 -1 -359 -4 -383 -14z"></path>
            <path id="pCJyGv1ds"
                  d="M8866 5528 c-14 -19 -16 -71 -16 -390 0 -388 3 -413 46 -424 12 -3 181 -7 374 -7 l351 -2 30 33 29 32 0 355 0 355 -29 32 -29 33 -370 3 -370 3 -16 -23z"></path>
            <path id="pXATWP1V6"
                  d="M880 4470 c-146 -3 -266 -7 -268 -8 -1 -1 -11 -17 -22 -34 -19 -31 -20 -52 -20 -380 l0 -348 29 -32 29 -33 344 -3 c189 -2 367 0 396 3 46 6 54 10 69 38 17 34 18 18 -11 511 -19 307 -10 291 -167 291 -63 1 -233 -2 -379 -5z"></path>
            <path id="pfnFnRAK"
                  d="M8874 4462 c-34 -22 -35 -31 -70 -652 -8 -146 3 -175 68 -185 24 -3 202 -5 396 -3 l354 3 29 33 29 32 0 345 c0 194 -4 355 -10 369 -19 52 -27 53 -420 60 -201 3 -370 2 -376 -2z"></path>
            <path id="pdZuWP3pi"
                  d="M617 3379 c-44 -26 -47 -49 -47 -415 l0 -346 34 -34 34 -34 440 0 441 0 26 23 c17 14 28 36 32 63 3 23 -13 172 -36 350 -50 369 -46 344 -72 377 l-20 27 -407 0 c-258 0 -413 -4 -425 -11z"></path>
            <path id="p1FGmrurTL"
                  d="M8781 3353 c-27 -33 -22 -9 -71 -378 -23 -171 -39 -328 -37 -350 4 -26 15 -48 32 -62 l26 -23 441 0 440 0 34 34 34 34 0 347 c0 360 -1 373 -44 407 -19 16 -57 18 -428 18 l-407 0 -20 -27z"></path>
        </g>
    </g>
    <g id="l765WLlXLDd4wGDx535ABeA" fill="rgb(137,112,239)" style="transform: none;">
        <g>
            <path id="p18U8dSPyu"
                  d="M4580 7265 c0 -27 1 -27 45 -23 34 4 45 2 45 -8 0 -8 8 -14 18 -14 11 0 215 -178 459 -397 242 -219 458 -414 481 -433 89 -75 1007 -904 1010 -912 2 -4 10 -8 18 -8 8 0 14 -4 14 -10 0 -5 9 -10 20 -10 26 0 25 11 -5 145 -90 399 -286 760 -567 1045 -387 393 -862 607 -1435 646 l-103 7 0 -28z"></path>
            <path id="p1CbDmu4wz"
                  d="M370 4231 c0 -1437 3 -1947 12 -1972 19 -57 49 -90 102 -115 l51 -24 2183 0 c2175 0 2182 0 2182 20 0 12 -7 20 -17 20 -10 0 -80 57 -155 125 l-137 125 -1329 0 -1329 0 -46 31 c-60 40 -92 107 -113 236 -8 54 -22 139 -29 188 -8 50 -17 99 -19 110 -6 25 -40 266 -56 395 -6 52 -18 142 -25 200 -29 222 -36 301 -45 490 -6 107 -14 276 -20 375 -5 99 -12 299 -16 445 l-6 265 -74 65 -74 65 0 58 c0 50 -2 57 -20 57 -20 0 -20 -7 -20 -290 0 -234 -3 -296 -14 -319 l-15 -28 -182 -6 c-310 -12 -466 -9 -499 8 -60 31 -60 29 -60 380 0 280 2 323 16 344 33 47 63 51 364 51 273 0 280 0 280 20 0 18 -7 20 -87 20 l-88 0 -117 106 c-86 77 -118 112 -118 129 0 22 -3 23 -100 27 -126 4 -142 16 -148 112 l-4 64 -88 81 c-63 58 -96 81 -114 81 l-26 0 0 -1939z m992 188 c16 -21 21 -53 28 -185 5 -87 15 -236 21 -330 10 -151 9 -175 -5 -202 -14 -26 -23 -31 -68 -37 -29 -3 -194 -5 -366 -3 l-314 3 -29 33 -29 32 0 318 c0 298 1 319 20 350 11 17 21 33 22 34 4 3 515 14 617 14 78 -1 85 -3 103 -27z m77 -1086 c26 -33 22 -9 71 -370 43 -319 43 -336 -2 -367 -20 -14 -73 -16 -431 -16 l-409 0 -34 34 -34 34 0 316 c0 334 3 359 47 385 12 7 158 11 395 11 l377 0 20 -27z"></path>
            <path id="p538ezQcw"
                  d="M3577 5518 c-38 -103 -56 -179 -66 -290 -24 -247 39 -497 178 -708 52 -80 191 -221 274 -278 111 -76 295 -162 347 -162 23 0 28 35 6 43 -13 5 -186 346 -226 447 -10 25 -66 144 -125 265 -59 121 -133 274 -165 340 -31 66 -83 172 -114 236 -31 66 -56 130 -56 148 0 53 -24 35 -53 -41z"></path>
        </g>
    </g>
    <g id="l18hVgHW1ARJ6iswBhQZJRs" fill="rgb(30,156,254)" style="transform: none;">
        <g>
            <path id="p23nvV4tt"
                  d="M5640 8110 c0 -11 5 -20 10 -20 6 0 23 -13 38 -29 15 -16 80 -77 145 -135 l119 -106 1206 0 c1171 0 1208 -1 1238 -19 42 -25 79 -77 93 -126 18 -65 68 -454 105 -815 43 -410 74 -892 84 -1265 7 -274 7 -280 28 -280 11 -1 41 -17 66 -38 31 -25 55 -37 77 -37 l31 0 0 119 c0 178 -36 162 373 159 l339 -3 29 -33 29 -32 0 -325 0 -325 -29 -32 c-28 -31 -33 -33 -110 -36 -123 -6 -119 -14 109 -220 170 -153 194 -172 225 -172 l35 0 -2 1822 -3 1823 -21 40 c-11 22 -41 54 -65 70 l-44 30 -2052 3 c-2050 2 -2053 2 -2053 -18z m3976 -464 l34 -34 0 -317 c0 -329 -2 -343 -44 -377 -19 -16 -56 -18 -398 -18 l-376 0 -26 31 c-14 17 -26 36 -26 43 0 7 -18 149 -40 317 -22 167 -40 310 -40 317 0 8 13 27 29 43 l29 29 412 0 412 0 34 -34z m0 -1080 l34 -34 0 -325 0 -326 -24 -28 -24 -28 -341 -3 c-225 -2 -348 1 -361 8 -29 16 -37 64 -50 295 -6 116 -15 254 -20 307 -10 98 -3 143 23 160 7 4 173 8 370 8 l359 0 34 -34z"></path>
            <path id="pQcN9VAH7"
                  d="M4830 6151 c0 -15 45 -121 100 -235 55 -114 100 -210 100 -213 0 -3 30 -67 66 -142 37 -75 94 -192 127 -261 33 -69 111 -230 173 -359 63 -128 114 -243 114 -256 0 -38 12 -85 22 -85 15 0 87 161 108 245 111 434 -42 881 -389 1143 -91 69 -230 142 -325 171 -89 28 -96 27 -96 -8z"></path>
            <path id="pgsOzo9Or"
                  d="M5335 3959 c-193 -127 -420 -201 -687 -225 l-68 -6 0 -385 0 -386 103 7 c232 15 452 60 644 132 251 93 649 337 628 384 -8 17 -165 160 -285 260 -121 100 -268 234 -272 247 -2 7 -26 -3 -63 -28z"></path>
        </g>
    </g>
    <g id="l56dU1OEuAWXB4380SV3qbE" fill="rgb(115,121,242)" style="transform: none;">
        <g>
            <path id="p18xmXcWxo"
                  d="M508 8120 c-49 -15 -90 -52 -114 -104 l-24 -51 0 -912 c0 -646 3 -913 11 -913 6 0 51 -37 100 -82 50 -46 97 -84 105 -86 12 -3 14 38 14 282 l0 286 29 32 29 33 354 3 c194 2 363 0 375 -3 34 -8 44 -54 33 -163 -5 -54 -14 -191 -20 -307 -13 -228 -21 -280 -49 -294 -11 -6 -147 -11 -322 -12 -167 -2 -294 -4 -282 -6 12 -3 23 -10 25 -17 2 -7 55 -60 118 -116 63 -57 127 -114 141 -127 25 -23 36 -25 165 -29 176 -5 169 1 179 -166 l7 -124 75 -67 c42 -37 82 -67 89 -67 11 0 14 21 14 88 0 48 4 164 10 257 5 94 14 262 20 375 5 113 16 311 24 440 14 219 21 295 46 475 5 39 17 129 25 200 9 72 20 155 25 185 5 30 12 83 15 118 l7 62 -30 0 c-25 0 -30 -5 -36 -31 -3 -17 -6 -42 -6 -55 0 -32 -7 -30 -59 16 l-45 39 12 133 c15 172 15 188 -2 188 -18 0 -19 -3 -61 -335 -20 -154 -38 -288 -41 -297 -3 -10 -17 -27 -31 -38 -25 -19 -39 -20 -390 -20 -395 0 -407 2 -431 55 -9 18 -12 118 -12 341 l0 316 34 34 34 34 196 0 c186 0 196 1 196 19 0 12 -75 87 -210 208 -115 103 -210 194 -210 201 0 14 -88 16 -132 2z"></path>
            <path id="p16BA4bYk8"
                  d="M4613 7275 l-33 -9 0 -372 0 -372 68 -6 c368 -32 642 -152 888 -389 168 -161 290 -354 359 -568 38 -118 65 -255 65 -330 0 -42 3 -49 19 -49 11 0 21 4 23 9 2 5 144 -119 317 -275 314 -285 351 -312 365 -266 14 45 37 206 47 330 11 138 7 270 -13 417 -6 44 -11 86 -11 93 0 6 -8 12 -18 12 -9 0 -19 4 -21 8 -3 8 -921 837 -1010 912 -23 19 -239 214 -481 433 -242 218 -448 397 -458 397 -10 0 -19 7 -21 17 -4 19 -38 22 -85 8z"></path>
            <path id="pK6BIu9s6"
                  d="M3834 5905 c-89 -89 -142 -157 -203 -266 -46 -83 -43 -117 25 -258 31 -64 83 -170 114 -236 32 -66 105 -218 164 -338 58 -119 120 -250 137 -290 17 -39 69 -151 117 -247 l87 -175 51 -17 c91 -30 261 -43 380 -29 58 6 111 14 119 18 22 8 18 33 -5 33 -16 0 -35 29 -90 138 -81 160 -165 330 -208 422 -16 36 -60 128 -97 205 -37 77 -90 187 -118 245 -27 58 -92 193 -144 300 -52 107 -105 218 -118 245 -13 28 -42 91 -66 140 -26 56 -45 111 -48 145 l-6 55 -91 -90z"></path>
            <path id="p1ETY1JezE"
                  d="M4551 2398 c1 -18 275 -261 302 -270 12 -3 561 -6 1220 -7 1191 -1 1197 -1 1197 19 0 12 -7 20 -17 20 -10 0 -80 56 -157 125 l-138 125 -1204 0 c-957 0 -1204 -3 -1203 -12z"></path>
        </g>
    </g>
    <g id="l74BU5fGODf4muEeHFX8xbn" fill="rgb(84,134,246)" style="transform: none;">
        <g>
            <path id="p3sLIqaxM"
                  d="M603 8123 c-7 -2 -13 -10 -13 -17 0 -7 101 -103 224 -214 l225 -202 226 0 227 0 30 -30 c29 -30 30 -32 24 -98 -4 -37 -7 -74 -7 -82 0 -8 -5 -62 -10 -119 l-10 -104 68 -63 c72 -67 93 -77 93 -44 0 13 7 20 19 20 21 0 23 31 3 38 -17 5 -15 32 3 32 8 0 15 5 15 10 0 6 -4 10 -10 10 -5 0 -10 5 -10 10 0 6 6 10 14 10 14 0 19 18 41 170 38 260 38 258 80 308 55 66 2 62 910 62 818 0 825 0 825 20 0 11 -5 20 -11 20 -6 0 -18 9 -27 19 -10 11 -71 67 -137 126 -66 59 -121 111 -123 116 -4 9 -2647 12 -2669 2z"></path>
            <path id="pRZJayMyi"
                  d="M3958 7863 c-10 -2 -18 -13 -18 -23 0 -18 9 -19 140 -18 125 1 140 3 140 18 0 12 -11 20 -31 24 -35 7 -204 6 -231 -1z"></path>
            <path id="pWt3lWDEo"
                  d="M4419 6200 c-92 -16 -206 -52 -298 -95 -112 -54 -221 -129 -221 -154 0 -9 -5 -22 -10 -27 -7 -7 7 -48 46 -130 31 -65 67 -141 79 -169 13 -27 66 -138 118 -245 52 -107 117 -242 144 -300 28 -58 81 -168 118 -245 37 -77 81 -169 97 -205 43 -91 126 -261 206 -419 55 -108 73 -136 93 -142 63 -16 315 87 442 182 72 54 81 69 43 69 -21 0 -31 15 -76 108 -28 59 -59 125 -68 147 -9 22 -44 96 -77 165 -34 69 -77 157 -95 195 -18 39 -89 184 -157 324 -67 139 -123 257 -123 262 0 4 -6 12 -13 16 -12 8 -30 42 -93 181 -52 113 -78 169 -136 285 -49 102 -56 121 -43 133 7 8 23 14 34 14 12 0 21 3 21 8 0 4 18 6 40 4 37 -4 40 -2 40 22 0 23 -4 26 -32 25 -18 -1 -54 -5 -79 -9z"></path>
            <path id="pBvm6r3tN"
                  d="M5969 5259 c-8 -322 -18 -394 -74 -567 -19 -59 -54 -146 -79 -194 l-44 -87 28 -3 c21 -2 95 -63 279 -228 242 -217 250 -226 251 -262 0 -21 4 -38 9 -38 30 0 224 370 276 525 50 148 75 255 60 255 -7 0 -161 134 -342 298 -401 362 -363 330 -364 301z"></path>
            <path id="p1rYs2r7i"
                  d="M8596 3418 c-3 -18 -11 -87 -16 -153 -13 -140 -55 -482 -75 -607 -17 -105 -47 -170 -99 -212 l-38 -31 -724 -3 c-565 -2 -724 -5 -724 -15 0 -16 275 -260 303 -269 12 -3 578 -6 1258 -7 l1235 -1 55 28 c45 22 59 36 82 81 37 74 36 101 -3 101 -27 0 -30 -3 -30 -30 0 -16 -4 -30 -10 -30 -5 0 -10 -7 -10 -15 0 -8 -3 -15 -7 -14 -5 0 -89 74 -188 164 l-180 164 -330 1 c-359 0 -364 1 -385 56 -7 17 3 116 31 327 22 166 42 311 44 323 7 35 45 74 71 74 17 0 24 5 24 20 0 17 -7 20 -45 20 -33 0 -45 -4 -45 -15 0 -8 -5 -15 -11 -15 -5 0 -15 -13 -20 -30 -6 -16 -17 -30 -25 -30 -9 0 -14 -11 -14 -27 0 -54 -14 -58 -58 -19 l-40 37 5 79 c5 69 4 80 -10 80 -10 0 -18 -12 -21 -32z"></path>
        </g>
    </g>
    <g id="l5Ml99ZHQPZs1twvXtFFt3v" fill="rgb(51,147,251)" style="transform: none;">
        <g>
            <path id="pdx6VKxrW"
                  d="M3233 8114 c-3 -8 -2 -19 3 -24 5 -4 67 -61 139 -125 72 -64 130 -122 130 -128 0 -9 64 -13 248 -14 164 -1 247 1 247 8 0 7 28 8 83 4 131 -10 1805 -16 1987 -6 l165 8 -121 2 -120 1 -145 130 c-79 71 -143 136 -143 145 2 13 -141 15 -1232 15 -1114 0 -1235 -1 -1241 -16z"></path>
            <path id="p14XI9ZHTR"
                  d="M9698 8123 c12 -2 22 -9 22 -14 0 -5 7 -9 15 -9 8 0 15 4 15 9 0 10 -36 21 -60 20 -8 -1 -5 -4 8 -6z"></path>
            <path id="pB7Be22lo"
                  d="M8803 6924 c9 -11 17 -26 17 -32 0 -13 13 -14 50 -2 25 8 25 8 -4 9 -17 1 -41 11 -55 24 -22 19 -23 19 -8 1z"></path>
            <path id="p6JB8UWxW"
                  d="M8810 6285 c0 -24 5 -35 15 -35 10 0 15 11 15 35 0 24 -5 35 -15 35 -10 0 -15 -11 -15 -35z"></path>
            <path id="pEMtVeqtj"
                  d="M4500 6203 c0 -5 -18 -7 -40 -5 -22 2 -40 0 -40 -6 0 -5 -11 -7 -25 -4 -18 3 -25 0 -25 -12 0 -19 -26 -22 -33 -3 -3 6 -6 1 -6 -13 -1 -14 30 -88 67 -165 68 -139 97 -200 145 -305 62 -137 82 -176 94 -183 7 -4 13 -12 13 -16 0 -5 51 -114 114 -242 177 -364 265 -548 303 -629 164 -354 152 -333 186 -334 22 -1 44 13 97 65 37 37 89 95 115 130 45 61 134 226 140 262 7 33 -23 17 -35 -20 l-13 -36 -12 34 c-7 19 -62 135 -122 259 -61 124 -137 281 -170 350 -33 69 -90 186 -127 261 -36 75 -66 139 -66 142 0 3 -45 99 -100 213 -55 114 -98 213 -96 218 2 6 5 4 5 -5 1 -16 40 -34 50 -24 2 3 -1 5 -7 5 -7 0 -12 6 -12 14 0 23 -130 48 -272 54 -72 2 -128 0 -128 -5z"></path>
            <path id="pQPeqg0jt"
                  d="M8840 6190 c0 -11 -4 -20 -10 -20 -5 0 -10 -20 -10 -45 0 -33 4 -45 15 -45 12 0 15 14 15 65 0 36 -2 65 -5 65 -3 0 -5 -9 -5 -20z"></path>
            <path id="p1GFijLJxp"
                  d="M8851 6023 c0 -13 -5 -23 -11 -23 -5 0 -10 -25 -10 -55 0 -42 3 -55 15 -55 18 0 20 -17 3 -22 -7 -3 -2 -7 10 -10 14 -4 20 -2 15 5 -3 6 -9 49 -13 96 -4 47 -8 76 -9 64z"></path>
            <path id="pC08yslts"
                  d="M8869 5829 c-11 -7 -11 -9 4 -9 9 0 17 -4 17 -10 0 -12 27 -13 34 -1 8 13 -39 30 -55 20z"></path>
            <path id="pBCFjGG4r" d="M9028 5523 c17 -2 47 -2 65 0 17 2 3 4 -33 4 -36 0 -50 -2 -32 -4z"></path>
            <path id="pvhwRaeRU"
                  d="M8869 5504 c-9 -11 -16 -55 -19 -126 l-5 -109 -75 67 c-55 49 -76 76 -80 98 -3 17 -6 -160 -7 -394 -3 -448 -28 -1005 -63 -1365 -10 -110 -21 -248 -25 -306 l-7 -105 70 -62 c38 -34 72 -62 76 -62 3 0 6 11 6 24 0 15 7 26 18 29 13 4 13 5 2 6 -20 1 -15 71 5 71 13 0 30 28 26 43 0 4 6 10 14 13 8 4 15 11 15 18 0 16 746 11 778 -6 50 -26 52 -44 52 -384 l0 -316 -34 -34 c-34 -34 -34 -34 -131 -34 -83 0 -96 -2 -93 -16 2 -9 89 -94 193 -189 106 -96 189 -178 187 -186 -2 -8 7 -4 20 8 14 13 29 23 36 23 6 0 9 7 6 15 -4 9 0 15 8 15 37 0 38 23 38 1175 0 980 -2 1125 -15 1125 -11 0 -15 -19 -17 -87 l-3 -88 -165 149 c-91 81 -179 163 -196 181 l-32 32 -262 7 c-144 4 -268 10 -275 12 -31 12 -35 56 -35 392 0 289 2 341 16 360 13 19 13 22 1 22 -8 0 -21 -7 -28 -16z m739 -1091 c13 -8 27 -25 32 -39 6 -14 10 -164 10 -339 l0 -315 -29 -32 -29 -33 -324 -3 c-384 -4 -402 -2 -424 40 -14 26 -14 50 -5 196 6 92 16 240 21 330 9 152 18 197 43 214 6 3 161 4 346 1 268 -4 341 -8 359 -20z"></path>
            <path id="paRK5APuE"
                  d="M9619 4759 c-9 -9 -19 -23 -22 -30 -4 -11 -6 -11 -6 -1 -1 7 -5 10 -11 7 -15 -9 -12 -25 4 -25 22 0 59 34 55 51 -3 12 -6 12 -20 -2z"></path>
            <path id="pcNnVmHXv"
                  d="M5813 4455 c-5 -13 -7 -14 -14 -3 -5 8 -9 9 -9 2 0 -7 -27 -53 -60 -104 -66 -99 -209 -254 -299 -322 -31 -24 -62 -49 -69 -55 -7 -7 -18 -13 -23 -13 -6 0 -7 -5 -4 -11 4 -6 14 -8 21 -5 9 4 55 -31 122 -92 59 -53 132 -118 162 -142 30 -25 105 -91 167 -147 l112 -102 -24 -23 c-13 -12 -21 -26 -18 -30 10 -17 193 144 301 265 77 86 182 220 182 233 0 4 10 18 22 31 16 17 18 22 6 18 -10 -4 -18 -1 -20 8 -1 9 -126 126 -276 262 -209 189 -274 242 -279 230z"></path>
            <path id="pZpINZzX4"
                  d="M5298 3936 c-10 -7 -15 -16 -11 -19 11 -12 21 -7 26 13 3 11 4 20 4 20 -1 0 -10 -7 -19 -14z"></path>
            <path id="pOAW6HBFi" d="M5839 3378 c-12 -23 -12 -23 10 -4 23 21 26 26 11 26 -5 0 -15 -10 -21 -22z"></path>
        </g>
    </g>
</svg>
